<svg xmlns="http://www.w3.org/2000/svg" xmlns:xlink="http://www.w3.org/1999/xlink" viewBox="0 0 1000 1000"><defs><style>.cls-1{fill:url(#linear-gradient);}.cls-2{fill:#fff;}</style><linearGradient id="linear-gradient" x1="186.93" y1="-43.98" x2="815.07" y2="1043.98" gradientUnits="userSpaceOnUse"><stop offset="0" stop-color="#4c4b4c"/><stop offset="0.5" stop-color="#181818"/><stop offset="1" stop-color="#4c4b4c"/></linearGradient></defs><g id="Logo-Dark-Backgrounded"><rect class="cls-1" x="1" width="1000" height="1000" rx="150"/><polygon class="cls-2" points="414.15 561.03 414.15 889.33 250 438.37 250 110.07 414.15 561.03"/><polygon class="cls-2" points="750 438.37 750 110.07 585.85 561.03 585.85 889.33 750 438.37"/><polygon class="cls-2" points="586.1 438.97 500 675.52 500 674.92 413.9 438.37 413.9 324.48 335.85 110.07 335.85 324.48 421.95 561.03 421.95 674.92 500 889.33 500 889.93 578.05 675.52 578.05 561.63 664.15 325.08 664.15 110.67 586.1 325.08 586.1 438.97"/></g></svg>